<?xml version="1.0" encoding="utf-8"?>
<!-- Generator: Adobe Illustrator 28.0.0, SVG Export Plug-In . SVG Version: 6.00 Build 0)  -->
<svg version="1.1" id="Layer_1" xmlns="http://www.w3.org/2000/svg" xmlns:xlink="http://www.w3.org/1999/xlink" x="0px" y="0px"
	 width="459px" height="263px" viewBox="0 0 459 263" enable-background="new 0 0 459 263" xml:space="preserve">
<g>
	<g>
		<polygon fill-rule="evenodd" clip-rule="evenodd" fill="#EEEEEE" points="158.144,68.411 158.144,136.752 132.634,123.084 
			132.634,82.079 		"/>
		<polygon fill="none" stroke="#595959" stroke-width="0.75" stroke-linejoin="round" stroke-miterlimit="8" points="
			158.144,68.411 158.144,136.752 132.634,123.084 132.634,82.079 		"/>
		<path fill-rule="evenodd" clip-rule="evenodd" fill="#EEEEEE" d="M137.862,85.028L137.862,85.028c0-1.631,1.206-2.953,2.693-2.953
			c0.714,0,1.399,0.311,1.904,0.865c0.505,0.554,0.789,1.305,0.789,2.088c0,1.631-1.206,2.953-2.693,2.953
			C139.068,87.98,137.862,86.658,137.862,85.028z"/>
		<path fill="none" stroke="#595959" stroke-width="0.75" stroke-linejoin="round" stroke-miterlimit="8" d="M137.862,85.028
			L137.862,85.028c0-1.631,1.206-2.953,2.693-2.953c0.714,0,1.399,0.311,1.904,0.865c0.505,0.554,0.789,1.305,0.789,2.088
			c0,1.631-1.206,2.953-2.693,2.953C139.068,87.98,137.862,86.658,137.862,85.028z"/>
		<path fill-rule="evenodd" clip-rule="evenodd" fill="#EEEEEE" d="M137.862,96.093L137.862,96.093c0-1.631,1.206-2.953,2.693-2.953
			c0.714,0,1.399,0.311,1.904,0.865c0.505,0.554,0.789,1.305,0.789,2.088c0,1.631-1.206,2.953-2.693,2.953
			C139.068,99.046,137.862,97.724,137.862,96.093z"/>
		<path fill="none" stroke="#595959" stroke-width="0.75" stroke-linejoin="round" stroke-miterlimit="8" d="M137.862,96.093
			L137.862,96.093c0-1.631,1.206-2.953,2.693-2.953c0.714,0,1.399,0.311,1.904,0.865c0.505,0.554,0.789,1.305,0.789,2.088
			c0,1.631-1.206,2.953-2.693,2.953C139.068,99.046,137.862,97.724,137.862,96.093z"/>
		<path fill-rule="evenodd" clip-rule="evenodd" fill="#EEEEEE" d="M137.862,107.159L137.862,107.159
			c0-1.631,1.206-2.953,2.693-2.953c0.714,0,1.399,0.311,1.904,0.865c0.505,0.554,0.789,1.305,0.789,2.088
			c0,1.631-1.206,2.953-2.693,2.953C139.068,110.112,137.862,108.79,137.862,107.159z"/>
		<path fill="none" stroke="#595959" stroke-width="0.75" stroke-linejoin="round" stroke-miterlimit="8" d="M137.862,107.159
			L137.862,107.159c0-1.631,1.206-2.953,2.693-2.953c0.714,0,1.399,0.311,1.904,0.865c0.505,0.554,0.789,1.305,0.789,2.088
			c0,1.631-1.206,2.953-2.693,2.953C139.068,110.112,137.862,108.79,137.862,107.159z"/>
		<path fill-rule="evenodd" clip-rule="evenodd" fill="#EEEEEE" d="M137.862,118.224L137.862,118.224
			c0-1.631,1.206-2.953,2.693-2.953c0.714,0,1.399,0.311,1.904,0.865c0.505,0.554,0.789,1.305,0.789,2.088
			c0,1.631-1.206,2.953-2.693,2.953C139.068,121.177,137.862,119.855,137.862,118.224z"/>
		<path fill="none" stroke="#595959" stroke-width="0.75" stroke-linejoin="round" stroke-miterlimit="8" d="M137.862,118.224
			L137.862,118.224c0-1.631,1.206-2.953,2.693-2.953c0.714,0,1.399,0.311,1.904,0.865c0.505,0.554,0.789,1.305,0.789,2.088
			c0,1.631-1.206,2.953-2.693,2.953C139.068,121.177,137.862,119.855,137.862,118.224z"/>
		<path fill-rule="evenodd" clip-rule="evenodd" fill="#EEEEEE" d="M148.811,80.181L148.811,80.181c0-1.631,1.206-2.953,2.693-2.953
			c0.714,0,1.399,0.311,1.904,0.865c0.505,0.554,0.789,1.305,0.789,2.088c0,1.631-1.206,2.953-2.693,2.953
			C150.017,83.134,148.811,81.812,148.811,80.181z"/>
		<path fill="none" stroke="#595959" stroke-width="0.75" stroke-linejoin="round" stroke-miterlimit="8" d="M148.811,80.181
			L148.811,80.181c0-1.631,1.206-2.953,2.693-2.953c0.714,0,1.399,0.311,1.904,0.865c0.505,0.554,0.789,1.305,0.789,2.088
			c0,1.631-1.206,2.953-2.693,2.953C150.017,83.134,148.811,81.812,148.811,80.181z"/>
		<path fill-rule="evenodd" clip-rule="evenodd" fill="#EEEEEE" d="M148.811,91.246L148.811,91.246c0-1.631,1.206-2.953,2.693-2.953
			c0.714,0,1.399,0.311,1.904,0.865c0.505,0.554,0.789,1.305,0.789,2.088c0,1.631-1.206,2.953-2.693,2.953
			C150.017,94.199,148.811,92.877,148.811,91.246z"/>
		<path fill="none" stroke="#595959" stroke-width="0.75" stroke-linejoin="round" stroke-miterlimit="8" d="M148.811,91.246
			L148.811,91.246c0-1.631,1.206-2.953,2.693-2.953c0.714,0,1.399,0.311,1.904,0.865c0.505,0.554,0.789,1.305,0.789,2.088
			c0,1.631-1.206,2.953-2.693,2.953C150.017,94.199,148.811,92.877,148.811,91.246z"/>
		<path fill-rule="evenodd" clip-rule="evenodd" fill="#EEEEEE" d="M148.811,102.312L148.811,102.312
			c0-1.631,1.206-2.953,2.693-2.953c0.714,0,1.399,0.311,1.904,0.865c0.505,0.554,0.789,1.305,0.789,2.088
			c0,1.631-1.206,2.953-2.693,2.953C150.017,105.265,148.811,103.943,148.811,102.312z"/>
		<path fill="none" stroke="#595959" stroke-width="0.75" stroke-linejoin="round" stroke-miterlimit="8" d="M148.811,102.312
			L148.811,102.312c0-1.631,1.206-2.953,2.693-2.953c0.714,0,1.399,0.311,1.904,0.865c0.505,0.554,0.789,1.305,0.789,2.088
			c0,1.631-1.206,2.953-2.693,2.953C150.017,105.265,148.811,103.943,148.811,102.312z"/>
		<path fill-rule="evenodd" clip-rule="evenodd" fill="#EEEEEE" d="M148.811,113.378L148.811,113.378
			c0-1.631,1.206-2.953,2.693-2.953c0.714,0,1.399,0.311,1.904,0.865c0.505,0.554,0.789,1.305,0.789,2.088
			c0,1.631-1.206,2.953-2.693,2.953C150.017,116.33,148.811,115.008,148.811,113.378z"/>
		<path fill="none" stroke="#595959" stroke-width="0.75" stroke-linejoin="round" stroke-miterlimit="8" d="M148.811,113.378
			L148.811,113.378c0-1.631,1.206-2.953,2.693-2.953c0.714,0,1.399,0.311,1.904,0.865c0.505,0.554,0.789,1.305,0.789,2.088
			c0,1.631-1.206,2.953-2.693,2.953C150.017,116.33,148.811,115.008,148.811,113.378z"/>
		<path fill-rule="evenodd" clip-rule="evenodd" fill="#EEEEEE" d="M148.811,124.636L148.811,124.636
			c0-1.631,1.206-2.953,2.693-2.953c0.714,0,1.399,0.311,1.904,0.865c0.505,0.554,0.789,1.305,0.789,2.088
			c0,1.631-1.206,2.953-2.693,2.953C150.017,127.588,148.811,126.266,148.811,124.636z"/>
		<path fill="none" stroke="#595959" stroke-width="0.75" stroke-linejoin="round" stroke-miterlimit="8" d="M148.811,124.636
			L148.811,124.636c0-1.631,1.206-2.953,2.693-2.953c0.714,0,1.399,0.311,1.904,0.865c0.505,0.554,0.789,1.305,0.789,2.088
			c0,1.631-1.206,2.953-2.693,2.953C150.017,127.588,148.811,126.266,148.811,124.636z"/>
		<rect x="132.382" y="86.788" opacity="0" fill-rule="evenodd" clip-rule="evenodd" width="15.307" height="18.189"/>
		<text transform="matrix(1 0 0 1 139.2012 96.9619)" fill="#595959" font-family="'ArialMT'" font-size="3px">8</text>
		<rect x="143.426" y="115.564" opacity="0" fill-rule="evenodd" clip-rule="evenodd" width="15.307" height="18.189"/>
		<text transform="matrix(1 0 0 1 150.2451 125.7383)" fill="#595959" font-family="'ArialMT'" font-size="3px">1</text>
		<rect x="143.426" y="103.989" opacity="0" fill-rule="evenodd" clip-rule="evenodd" width="15.307" height="18.189"/>
		<text transform="matrix(1 0 0 1 150.2451 114.1631)" fill="#595959" font-family="'ArialMT'" font-size="3px">2</text>
		<rect x="143.32" y="93.157" opacity="0" fill-rule="evenodd" clip-rule="evenodd" width="15.307" height="18.189"/>
		<text transform="matrix(1 0 0 1 150.1387 103.3315)" fill="#595959" font-family="'ArialMT'" font-size="3px">3</text>
		<rect x="143.32" y="82.007" opacity="0" fill-rule="evenodd" clip-rule="evenodd" width="15.307" height="18.189"/>
		<text transform="matrix(1 0 0 1 150.1387 92.1816)" fill="#595959" font-family="'ArialMT'" font-size="3px">4</text>
		<rect x="143.32" y="70.963" opacity="0" fill-rule="evenodd" clip-rule="evenodd" width="15.307" height="18.189"/>
		<text transform="matrix(1 0 0 1 150.1387 81.1377)" fill="#595959" font-family="'ArialMT'" font-size="3px">5</text>
		<rect x="132.382" y="108.982" opacity="0" fill-rule="evenodd" clip-rule="evenodd" width="15.307" height="18.189"/>
		<text transform="matrix(1 0 0 1 139.2012 119.1558)" fill="#595959" font-family="'ArialMT'" font-size="3px">6</text>
		<rect x="132.382" y="97.938" opacity="0" fill-rule="evenodd" clip-rule="evenodd" width="15.307" height="18.189"/>
		<text transform="matrix(1 0 0 1 139.2012 108.1123)" fill="#595959" font-family="'ArialMT'" font-size="3px">7</text>
		<rect x="132.382" y="75.956" opacity="0" fill-rule="evenodd" clip-rule="evenodd" width="15.307" height="18.189"/>
		<text transform="matrix(1 0 0 1 139.2012 86.1304)" fill="#595959" font-family="'ArialMT'" font-size="3px">9</text>
		<rect x="165.598" y="59.537" opacity="0" fill-rule="evenodd" clip-rule="evenodd" width="81.089" height="81.087"/>
		<g>
			<defs>
				<rect id="SVGID_1_" x="165.598" y="59.537" width="81.089" height="81.087"/>
			</defs>
			<clipPath id="SVGID_00000170994910611414966250000006174762281523240589_">
				<use xlink:href="#SVGID_1_"  overflow="visible"/>
			</clipPath>
			<g clip-path="url(#SVGID_00000170994910611414966250000006174762281523240589_)">
				<defs>
					
						<rect id="SVGID_00000105390255809279165230000000016162973237406875_" x="165.598" y="59.537" width="81.089" height="81.087"/>
				</defs>
				<clipPath id="SVGID_00000176731635588485761930000005036861068064882843_">
					<use xlink:href="#SVGID_00000105390255809279165230000000016162973237406875_"  overflow="visible"/>
				</clipPath>
				<g transform="matrix(1 0 0 1 0 3.814697e-06)" clip-path="url(#SVGID_00000176731635588485761930000005036861068064882843_)">
					
						<image overflow="visible" width="600" height="600" xlink:href="B156B095404276F9.jpg"  transform="matrix(0.1351 0 0 0.1351 165.5984 59.5374)">
					</image>
				</g>
			</g>
		</g>
		<rect x="246.687" y="45.694" opacity="0" fill-rule="evenodd" clip-rule="evenodd" width="125.47" height="100.376"/>
		<g>
			<defs>
				
					<rect id="SVGID_00000169535340545816526780000010337727150820824737_" x="246.687" y="45.694" width="125.47" height="100.376"/>
			</defs>
			<clipPath id="SVGID_00000074416418877140536130000009743765913777143691_">
				<use xlink:href="#SVGID_00000169535340545816526780000010337727150820824737_"  overflow="visible"/>
			</clipPath>
			<g clip-path="url(#SVGID_00000074416418877140536130000009743765913777143691_)">
				<defs>
					
						<rect id="SVGID_00000180366722012150971520000016409535623440137378_" x="246.687" y="45.694" width="125.47" height="100.376"/>
				</defs>
				<clipPath id="SVGID_00000167386390288527148400000001798226345381620621_">
					<use xlink:href="#SVGID_00000180366722012150971520000016409535623440137378_"  overflow="visible"/>
				</clipPath>
				<g clip-path="url(#SVGID_00000167386390288527148400000001798226345381620621_)">
					
						<image overflow="visible" width="400" height="500" xlink:href="B156B095404276FB.jpg"  transform="matrix(0 0.2509 -0.2509 0 372.1577 45.6937)">
					</image>
				</g>
			</g>
		</g>
		<path opacity="0" fill-rule="evenodd" clip-rule="evenodd" d="M140.441,86.041c-6.266-1.343-13.979-4.821-19.193-1.096
			c-15.022,10.731-14.268,36.124-10.967,54.287c3.976,21.87,19.171,44.711,39.482,53.74c40.943,18.201,99.932,24.303,134.348-4.388
			c12.918-10.768,4.775-34.496-0.549-50.449"/>
		<path fill="none" stroke="#595959" stroke-width="0.75" stroke-linejoin="round" stroke-miterlimit="8" d="M140.441,86.041
			c-6.266-1.343-13.979-4.821-19.193-1.096c-15.022,10.731-14.268,36.124-10.967,54.287c3.976,21.87,19.171,44.711,39.482,53.74
			c40.943,18.201,99.932,24.303,134.348-4.388c12.918-10.768,4.775-34.496-0.549-50.449"/>
		<path opacity="0" fill-rule="evenodd" clip-rule="evenodd" d="M152.504,80.557c8.041,1.342,10.088,13.002,16.453,18.096
			c5.745,4.599,14.405,3.155,21.386,5.484"/>
		<path fill="none" stroke="#595959" stroke-width="0.75" stroke-linejoin="round" stroke-miterlimit="8" d="M152.504,80.557
			c8.041,1.342,10.088,13.002,16.453,18.096c5.745,4.599,14.405,3.155,21.386,5.484"/>
		<path opacity="0" fill-rule="evenodd" clip-rule="evenodd" d="M152.006,80.557c8.94,2.186,9.692,15.732,11.691,24.547
			c5.1,22.493,8.825,50.5,28.392,63.279c9.424,6.155,21.718,6.38,32.289,10.365c20.455,7.711,49.048,11.246,65.69-2.728
			c9.317-7.823,2.226-23.98,2.226-36.003"/>
		<path fill="none" stroke="#595959" stroke-width="0.75" stroke-linejoin="round" stroke-miterlimit="8" d="M152.006,80.557
			c8.94,2.186,9.692,15.732,11.691,24.547c5.1,22.493,8.825,50.5,28.392,63.279c9.424,6.155,21.718,6.38,32.289,10.365
			c20.455,7.711,49.048,11.246,65.69-2.728c9.317-7.823,2.226-23.98,2.226-36.003"/>
		<path opacity="0" fill-rule="evenodd" clip-rule="evenodd" d="M283.562,57.527c-3.29-15.368-12.697-30.762-25.772-39.482
			c-21.172-14.121-54.752-18.052-76.222-4.388c-11.035,7.023-18.546,20.133-21.388,32.902c-4.202,18.88,10.27,49.902,29.612,49.902"
			/>
		<path fill="none" stroke="#595959" stroke-width="0.75" stroke-linejoin="round" stroke-miterlimit="8" d="M283.562,57.527
			c-3.29-15.368-12.697-30.762-25.772-39.482c-21.172-14.121-54.752-18.052-76.222-4.388c-11.035,7.023-18.546,20.133-21.388,32.902
			c-4.202,18.88,10.27,49.902,29.612,49.902"/>
		<path opacity="0" fill-rule="evenodd" clip-rule="evenodd" d="M152.006,113.923c5.106,0.928,11.329,3.705,15.553,0.691
			c11.964-8.538,2.263-29.606,6.913-43.549c1.498-4.492,8.743-4.492,13.478-4.492"/>
		<path fill="none" stroke="#595959" stroke-width="0.75" stroke-linejoin="round" stroke-miterlimit="8" d="M152.006,113.923
			c5.106,0.928,11.329,3.705,15.553,0.691c11.964-8.538,2.263-29.606,6.913-43.549c1.498-4.492,8.743-4.492,13.478-4.492"/>
		<path opacity="0" fill-rule="evenodd" clip-rule="evenodd" d="M151.315,101.481c3.824,7.648,18.84,12.267,24.886,6.22
			c6.849-6.849,3.578-27.508,13.134-25.921"/>
		<path fill="none" stroke="#595959" stroke-width="0.75" stroke-linejoin="round" stroke-miterlimit="8" d="M151.315,101.481
			c3.824,7.648,18.84,12.267,24.886,6.22c6.849-6.849,3.578-27.508,13.134-25.921"/>
		<path opacity="0" fill-rule="evenodd" clip-rule="evenodd" d="M317.906,57.93c2.633-5.266,3.993-12.086,8.986-15.207
			c14.866-9.29,36.673-5.046,52.533,2.419c19.927,9.379,35.494,30.056,41.821,51.152c4.34,14.472,2.075,30.169,2.075,45.278
			c0,12.204,2.701,26.695-4.841,36.289c-12.233,15.564-33.624,21.47-52.189,28.343c-56.323,20.85-129.401,16.37-179.378-16.937
			c-10.939-7.29-24.729-16.631-25.921-29.722c-1.304-14.312,15.492-38.922,28.343-32.488"/>
		<path fill="none" stroke="#595959" stroke-width="0.75" stroke-linejoin="round" stroke-miterlimit="8" d="M317.906,57.93
			c2.633-5.266,3.993-12.086,8.986-15.207c14.866-9.29,36.673-5.046,52.533,2.419c19.927,9.379,35.494,30.056,41.821,51.152
			c4.34,14.472,2.075,30.169,2.075,45.278c0,12.204,2.701,26.695-4.841,36.289c-12.233,15.564-33.624,21.47-52.189,28.343
			c-56.323,20.85-129.401,16.37-179.378-16.937c-10.939-7.29-24.729-16.631-25.921-29.722
			c-1.304-14.312,15.492-38.922,28.343-32.488"/>
		<path opacity="0" fill-rule="evenodd" clip-rule="evenodd" d="M309.264,56.55c0-10.433,6.002-23.661,15.9-26.959
			c16.162-5.385,34.426,0.851,50.807,5.53c14.183,4.051,30.571,7.007,40.437,17.972c18.188,20.214,19.146,51.681,21.083,78.803
			c1.045,14.631,6.663,29.663,3.11,43.894c-3.599,14.416-13.201,27.802-24.884,36.982c-28.585,22.462-69.751,25.23-106.106,25.23
			c-21.199,0-43.306,5.456-63.594-0.693c-36.464-11.051-73.28-28.018-100.23-54.953c-6.585-6.581,0.942-19.41,5.876-27.305
			c10.139-16.224,19.216-36.792,36.98-43.894"/>
		<path fill="none" stroke="#595959" stroke-width="0.75" stroke-linejoin="round" stroke-miterlimit="8" d="M309.264,56.55
			c0-10.433,6.002-23.661,15.9-26.959c16.162-5.385,34.426,0.851,50.807,5.53c14.183,4.051,30.571,7.007,40.437,17.972
			c18.188,20.214,19.146,51.681,21.083,78.803c1.045,14.631,6.663,29.663,3.11,43.894c-3.599,14.416-13.201,27.802-24.884,36.982
			c-28.585,22.462-69.751,25.23-106.106,25.23c-21.199,0-43.306,5.456-63.594-0.693c-36.464-11.051-73.28-28.018-100.23-54.953
			c-6.585-6.581,0.942-19.41,5.876-27.305c10.139-16.224,19.216-36.792,36.98-43.894"/>
		<rect y="83.179" opacity="0" fill-rule="evenodd" clip-rule="evenodd" width="100.228" height="50.906"/>
		<text transform="matrix(1 0 0 1 6.75 95.6895)" fill="#595959" font-family="'Arial-BoldMT'" font-size="6px">Pin 9 in rs232 dsub9</text>
		<text transform="matrix(1 0 0 1 6.75 102.8892)" fill="#595959" font-family="'Arial-BoldMT'" font-size="6px">connector doesn’t have </text>
		<text transform="matrix(1 0 0 1 6.75 110.0889)"><tspan x="0" y="0" fill="#595959" font-family="'Arial-BoldMT'" font-size="6px">5v on it normall</tspan><tspan x="44.341" y="0" fill="#595959" font-family="'Arial-BoldMT'" font-size="6px">y</tspan><tspan x="47.234" y="0" fill="#595959" font-family="'Arial-BoldMT'" font-size="6px">. I connected</tspan></text>
		<text transform="matrix(1 0 0 1 6.75 117.2891)" fill="#595959" font-family="'Arial-BoldMT'" font-size="6px">internally on my instrument.</text>
		<text transform="matrix(1 0 0 1 6.75 124.4893)" fill="#595959" font-family="'Arial-BoldMT'" font-size="6px">Pin 9 is usually unused.</text>
		<rect x="133.601" opacity="0" fill-rule="evenodd" clip-rule="evenodd" width="23.575" height="56.126"/>
		<text transform="matrix(0 1 -1 0 144.666 6.75)" fill="#595959" font-family="'Arial-BoldMT'" font-size="6px">DSUB9 RS232</text>
		<rect x="194.354" y="15.85" opacity="0" fill-rule="evenodd" clip-rule="evenodd" width="23.575" height="45.425"/>
		<text transform="matrix(0 1 -1 0 205.4189 22.6006)" fill="#595959" font-family="'Arial-BoldMT'" font-size="6px">Sparkfun </text>
		<text transform="matrix(0 1 -1 0 198.2188 22.6006)" fill="#595959" font-family="'Arial-BoldMT'" font-size="6px">MAX3232</text>
		<rect x="288.055" opacity="0" fill-rule="evenodd" clip-rule="evenodd" width="31.701" height="45.425"/>
		<text transform="matrix(0 1 -1 0 307.2461 6.75)"><tspan x="0" y="0" fill="#595959" font-family="'Arial-BoldMT'" font-size="6px">W</tspan><tspan x="5.555" y="0" fill="#595959" font-family="'Arial-BoldMT'" font-size="6px">emos d1 </tspan></text>
		<text transform="matrix(0 1 -1 0 300.0459 6.75)" fill="#595959" font-family="'Arial-BoldMT'" font-size="6px">mini or </text>
		<text transform="matrix(0 1 -1 0 292.8457 6.75)" fill="#595959" font-family="'Arial-BoldMT'" font-size="6px">equivalent</text>
	</g>
</g>
</svg>
