<?xml version="1.0" encoding="utf-8"?>
<!-- Generator: Adobe Illustrator 28.0.0, SVG Export Plug-In . SVG Version: 6.00 Build 0)  -->
<svg version="1.1" id="Layer_1" xmlns="http://www.w3.org/2000/svg" xmlns:xlink="http://www.w3.org/1999/xlink" x="0px" y="0px"
	 width="459px" height="263px" viewBox="0 0 459 263" style="enable-background:new 0 0 459 263;" xml:space="preserve">
<style type="text/css">
	.st0{fill-rule:evenodd;clip-rule:evenodd;fill:#EEEEEE;}
	.st1{fill:none;stroke:#595959;stroke-width:0.75;stroke-linejoin:round;stroke-miterlimit:8;}
	.st2{fill-rule:evenodd;clip-rule:evenodd;fill-opacity:0;}
	.st3{fill:#595959;}
	.st4{font-family:'ArialMT';}
	.st5{font-size:3px;}
	.st6{clip-path:url(#SVGID_00000140000102239364436480000012078155044497050811_);}
	.st7{clip-path:url(#SVGID_00000132789862453288151630000017095741127126414225_);}
	.st8{clip-path:url(#SVGID_00000181050681333297387460000012696309913359607711_);}
	.st9{clip-path:url(#SVGID_00000134932066151624059920000008365749517705094298_);}
	.st10{fill:none;stroke:#EF0F0F;stroke-miterlimit:10;}
	.st11{fill:none;stroke:#663300;stroke-linejoin:round;stroke-miterlimit:8;}
	.st12{fill-rule:evenodd;clip-rule:evenodd;fill:none;stroke:#000000;stroke-miterlimit:10;}
	.st13{fill:none;stroke:#000000;stroke-miterlimit:10;}
	.st14{fill:none;stroke:#CC6600;stroke-linejoin:round;stroke-miterlimit:8;}
	.st15{fill:none;stroke:#FFCC66;stroke-width:0.75;stroke-linejoin:round;stroke-miterlimit:8;}
	.st16{fill-rule:evenodd;clip-rule:evenodd;fill:none;stroke:#6600FF;stroke-miterlimit:10;}
	.st17{fill:none;stroke:#9900FF;stroke-width:0.75;stroke-linejoin:round;stroke-miterlimit:8;}
	.st18{fill:none;stroke:#00FF33;stroke-width:0.75;stroke-linejoin:round;stroke-miterlimit:8;}
	.st19{fill:none;stroke:#0000FF;stroke-miterlimit:10;}
	.st20{font-family:'Arial-BoldMT';}
	.st21{font-size:6px;}
</style>
<polygon class="st0" points="158.1,78.1 158.1,146.5 132.6,132.8 132.6,91.8 "/>
<polygon class="st1" points="158.1,78.1 158.1,146.5 132.6,132.8 132.6,91.8 "/>
<path class="st0" d="M137.9,94.8L137.9,94.8c0-1.6,1.2-3,2.7-3c0.7,0,1.4,0.3,1.9,0.9s0.8,1.3,0.8,2.1c0,1.6-1.2,3-2.7,3
	C139.1,97.7,137.9,96.4,137.9,94.8z"/>
<path class="st1" d="M137.9,94.8L137.9,94.8c0-1.6,1.2-3,2.7-3c0.7,0,1.4,0.3,1.9,0.9s0.8,1.3,0.8,2.1c0,1.6-1.2,3-2.7,3
	C139.1,97.7,137.9,96.4,137.9,94.8z"/>
<path class="st0" d="M137.9,105.8L137.9,105.8c0-1.6,1.2-3,2.7-3c0.7,0,1.4,0.3,1.9,0.9s0.8,1.3,0.8,2.1c0,1.6-1.2,3-2.7,3
	C139.1,108.8,137.9,107.5,137.9,105.8z"/>
<path class="st1" d="M137.9,105.8L137.9,105.8c0-1.6,1.2-3,2.7-3c0.7,0,1.4,0.3,1.9,0.9s0.8,1.3,0.8,2.1c0,1.6-1.2,3-2.7,3
	C139.1,108.8,137.9,107.5,137.9,105.8z"/>
<path class="st0" d="M137.9,116.9L137.9,116.9c0-1.6,1.2-3,2.7-3c0.7,0,1.4,0.3,1.9,0.9s0.8,1.3,0.8,2.1c0,1.6-1.2,3-2.7,3
	C139.1,119.8,137.9,118.5,137.9,116.9z"/>
<path class="st1" d="M137.9,116.9L137.9,116.9c0-1.6,1.2-3,2.7-3c0.7,0,1.4,0.3,1.9,0.9s0.8,1.3,0.8,2.1c0,1.6-1.2,3-2.7,3
	C139.1,119.8,137.9,118.5,137.9,116.9z"/>
<path class="st0" d="M137.9,128L137.9,128c0-1.6,1.2-3,2.7-3c0.7,0,1.4,0.3,1.9,0.9s0.8,1.3,0.8,2.1c0,1.6-1.2,3-2.7,3
	C139.1,130.9,137.9,129.6,137.9,128z"/>
<path class="st1" d="M137.9,128L137.9,128c0-1.6,1.2-3,2.7-3c0.7,0,1.4,0.3,1.9,0.9s0.8,1.3,0.8,2.1c0,1.6-1.2,3-2.7,3
	C139.1,130.9,137.9,129.6,137.9,128z"/>
<path class="st0" d="M148.8,89.9L148.8,89.9c0-1.6,1.2-3,2.7-3c0.7,0,1.4,0.3,1.9,0.9s0.8,1.3,0.8,2.1c0,1.6-1.2,3-2.7,3
	C150,92.9,148.8,91.5,148.8,89.9z"/>
<path class="st1" d="M148.8,89.9L148.8,89.9c0-1.6,1.2-3,2.7-3c0.7,0,1.4,0.3,1.9,0.9s0.8,1.3,0.8,2.1c0,1.6-1.2,3-2.7,3
	C150,92.9,148.8,91.5,148.8,89.9z"/>
<path class="st0" d="M148.8,101L148.8,101c0-1.6,1.2-3,2.7-3c0.7,0,1.4,0.3,1.9,0.9s0.8,1.3,0.8,2.1c0,1.6-1.2,3-2.7,3
	C150,103.9,148.8,102.6,148.8,101z"/>
<path class="st1" d="M148.8,101L148.8,101c0-1.6,1.2-3,2.7-3c0.7,0,1.4,0.3,1.9,0.9s0.8,1.3,0.8,2.1c0,1.6-1.2,3-2.7,3
	C150,103.9,148.8,102.6,148.8,101z"/>
<path class="st0" d="M148.8,112L148.8,112c0-1.6,1.2-3,2.7-3c0.7,0,1.4,0.3,1.9,0.9s0.8,1.3,0.8,2.1c0,1.6-1.2,3-2.7,3
	C150,115,148.8,113.7,148.8,112z"/>
<path class="st1" d="M148.8,112L148.8,112c0-1.6,1.2-3,2.7-3c0.7,0,1.4,0.3,1.9,0.9s0.8,1.3,0.8,2.1c0,1.6-1.2,3-2.7,3
	C150,115,148.8,113.7,148.8,112z"/>
<path class="st0" d="M148.8,123.1L148.8,123.1c0-1.6,1.2-3,2.7-3c0.7,0,1.4,0.3,1.9,0.9s0.8,1.3,0.8,2.1c0,1.6-1.2,3-2.7,3
	C150,126.1,148.8,124.7,148.8,123.1z"/>
<path class="st1" d="M148.8,123.1L148.8,123.1c0-1.6,1.2-3,2.7-3c0.7,0,1.4,0.3,1.9,0.9s0.8,1.3,0.8,2.1c0,1.6-1.2,3-2.7,3
	C150,126.1,148.8,124.7,148.8,123.1z"/>
<path class="st0" d="M148.8,134.4L148.8,134.4c0-1.6,1.2-3,2.7-3c0.7,0,1.4,0.3,1.9,0.9s0.8,1.3,0.8,2.1c0,1.6-1.2,3-2.7,3
	C150,137.3,148.8,136,148.8,134.4z"/>
<path class="st1" d="M148.8,134.4L148.8,134.4c0-1.6,1.2-3,2.7-3c0.7,0,1.4,0.3,1.9,0.9s0.8,1.3,0.8,2.1c0,1.6-1.2,3-2.7,3
	C150,137.3,148.8,136,148.8,134.4z"/>
<rect x="132.4" y="96.5" class="st2" width="15.3" height="18.2"/>
<text transform="matrix(1 0 0 1 139.2012 106.6917)" class="st3 st4 st5">8</text>
<rect x="143.4" y="125.3" class="st2" width="15.3" height="18.2"/>
<text transform="matrix(1 0 0 1 150.2451 135.468)" class="st3 st4 st5">1</text>
<rect x="143.4" y="113.7" class="st2" width="15.3" height="18.2"/>
<text transform="matrix(1 0 0 1 150.2451 123.8928)" class="st3 st4 st5">2</text>
<rect x="143.3" y="102.9" class="st2" width="15.3" height="18.2"/>
<text transform="matrix(1 0 0 1 150.1387 113.0612)" class="st3 st4 st5">3</text>
<rect x="143.3" y="91.7" class="st2" width="15.3" height="18.2"/>
<text transform="matrix(1 0 0 1 150.1387 101.9113)" class="st3 st4 st5">4</text>
<rect x="143.3" y="80.7" class="st2" width="15.3" height="18.2"/>
<text transform="matrix(1 0 0 1 150.1387 90.8674)" class="st3 st4 st5">5</text>
<rect x="132.4" y="118.7" class="st2" width="15.3" height="18.2"/>
<text transform="matrix(1 0 0 1 139.2012 128.8855)" class="st3 st4 st5">6</text>
<rect x="132.4" y="107.7" class="st2" width="15.3" height="18.2"/>
<text transform="matrix(1 0 0 1 139.2012 117.842)" class="st3 st4 st5">7</text>
<rect x="132.4" y="85.7" class="st2" width="15.3" height="18.2"/>
<text transform="matrix(1 0 0 1 139.2012 95.8601)" class="st3 st4 st5">9</text>
<rect x="165.6" y="69.3" class="st2" width="81.1" height="81.1"/>
<g>
	<g>
		<defs>
			<rect id="SVGID_1_" x="165.6" y="69.3" width="81.1" height="81.1"/>
		</defs>
		<clipPath id="SVGID_00000102505908729731316400000005566811717132331709_">
			<use xlink:href="#SVGID_1_"  style="overflow:visible;"/>
		</clipPath>
		<g style="clip-path:url(#SVGID_00000102505908729731316400000005566811717132331709_);">
			<g>
				<defs>
					<rect id="SVGID_00000150816980682831305120000011141490706105180816_" x="165.6" y="69.3" width="81.1" height="81.1"/>
				</defs>
				<clipPath id="SVGID_00000068661647525790852230000016373481179153913020_">
					<use xlink:href="#SVGID_00000150816980682831305120000011141490706105180816_"  style="overflow:visible;"/>
				</clipPath>
				
					<g transform="matrix(1 0 0 1 0 3.814697e-06)" style="clip-path:url(#SVGID_00000068661647525790852230000016373481179153913020_);">
					
						<image style="overflow:visible;enable-background:new    ;" width="598" height="598" xlink:href="B156B095404276F9.jpg"  transform="matrix(0.1356 0 0 0.1356 165.5984 69.2671)">
					</image>
				</g>
			</g>
		</g>
	</g>
</g>
<rect x="246.7" y="55.4" class="st2" width="125.5" height="100.4"/>
<g>
	<g>
		<defs>
			<rect id="SVGID_00000042011461826260585560000011875451019561159576_" x="246.7" y="55.4" width="125.5" height="100.4"/>
		</defs>
		<clipPath id="SVGID_00000086649892735272110010000004310584911606429074_">
			<use xlink:href="#SVGID_00000042011461826260585560000011875451019561159576_"  style="overflow:visible;"/>
		</clipPath>
		<g style="clip-path:url(#SVGID_00000086649892735272110010000004310584911606429074_);">
			<g>
				<defs>
					<rect id="SVGID_00000052823871885115598990000009758015863206277027_" x="246.7" y="55.4" width="125.5" height="100.4"/>
				</defs>
				<clipPath id="SVGID_00000152256803265071341410000003614233783529548947_">
					<use xlink:href="#SVGID_00000052823871885115598990000009758015863206277027_"  style="overflow:visible;"/>
				</clipPath>
				<g style="clip-path:url(#SVGID_00000152256803265071341410000003614233783529548947_);">
					
						<image style="overflow:visible;enable-background:new    ;" width="400" height="500" xlink:href="B156B095404276FB.jpg"  transform="matrix(-4.608958e-17 0.2509 -0.2509 -4.608958e-17 372.1577 55.4234)">
					</image>
				</g>
			</g>
		</g>
	</g>
</g>
<path class="st2" d="M140.4,95.8c-6.3-1.3-14-4.8-19.2-1.1c-15,10.7-14.3,36.1-11,54.3c4,21.9,19.2,44.7,39.5,53.7
	c40.9,18.2,99.9,24.3,134.3-4.4c12.9-10.8,4.8-34.5-0.5-50.4"/>
<path class="st10" d="M140.4,95.8c-6.3-1.3-14-4.8-19.2-1.1c-15,10.7-14.3,36.1-11,54.3c4,21.9,19.2,44.7,39.5,53.7
	c40.9,18.2,99.9,24.3,134.3-4.4c12.9-10.8,4.8-34.5-0.5-50.4"/>
<path class="st2" d="M152.5,90.3c8,1.3,10.1,13,16.5,18.1c5.7,4.6,14.4,3.2,21.4,5.5"/>
<path class="st11" d="M152.5,90.3c8,1.3,10.1,13,16.5,18.1c5.7,4.6,14.4,3.2,21.4,5.5"/>
<path class="st12" d="M152,90.3c8.9,2.2,9.7,15.7,11.7,24.5c5.1,22.5,8.8,50.5,28.4,63.3c9.4,6.2,21.7,6.4,32.3,10.4
	c20.5,7.7,49,11.2,65.7-2.7c9.3-7.8,2.2-24,2.2-36"/>
<path class="st13" d="M152,90.3c8.9,2.2,9.7,15.7,11.7,24.5c5.1,22.5,8.8,50.5,28.4,63.3c9.4,6.2,21.7,6.4,32.3,10.4
	c20.5,7.7,49,11.2,65.7-2.7c9.3-7.8,2.2-24,2.2-36"/>
<path class="st2" d="M283.6,67.3c-3.3-15.4-12.7-30.8-25.8-39.5c-21.2-14.1-54.8-18.1-76.2-4.4c-11,7-18.5,20.1-21.4,32.9
	c-4.2,18.9,10.3,49.9,29.6,49.9"/>
<path class="st14" d="M283.6,67.3c-3.3-15.4-12.7-30.8-25.8-39.5c-21.2-14.1-54.8-18.1-76.2-4.4c-11,7-18.5,20.1-21.4,32.9
	c-4.2,18.9,10.3,49.9,29.6,49.9"/>
<path class="st12" d="M152,123.7c5.1,0.9,11.3,3.7,15.6,0.7c12-8.5,2.3-29.6,6.9-43.5c1.5-4.5,8.7-4.5,13.5-4.5"/>
<path class="st15" d="M152,123.7c5.1,0.9,11.3,3.7,15.6,0.7c12-8.5,2.3-29.6,6.9-43.5c1.5-4.5,8.7-4.5,13.5-4.5"/>
<path class="st16" d="M151.3,111.2c3.8,7.6,18.8,12.3,24.9,6.2c6.8-6.8,3.6-27.5,13.1-25.9"/>
<path class="st17" d="M151.3,111.2c3.8,7.6,18.8,12.3,24.9,6.2c6.8-6.8,3.6-27.5,13.1-25.9"/>
<path class="st12" d="M317.9,67.7c2.6-5.3,4-12.1,9-15.2c14.9-9.3,36.7-5,52.5,2.4c19.9,9.4,35.5,30.1,41.8,51.2
	c4.3,14.5,2.1,30.2,2.1,45.3c0,12.2,2.7,26.7-4.8,36.3c-12.2,15.6-33.6,21.5-52.2,28.3C310,236.8,236.9,232.3,186.9,199
	c-10.9-7.3-24.7-16.6-25.9-29.7c-1.3-14.3,15.5-38.9,28.3-32.5"/>
<path class="st18" d="M317.9,67.7c2.6-5.3,4-12.1,9-15.2c14.9-9.3,36.7-5,52.5,2.4c19.9,9.4,35.5,30.1,41.8,51.2
	c4.3,14.5,2.1,30.2,2.1,45.3c0,12.2,2.7,26.7-4.8,36.3c-12.2,15.6-33.6,21.5-52.2,28.3C310,236.8,236.9,232.3,186.9,199
	c-10.9-7.3-24.7-16.6-25.9-29.7c-1.3-14.3,15.5-38.9,28.3-32.5"/>
<path class="st12" d="M309.3,66.3c0-10.4,6-23.7,15.9-27c16.2-5.4,34.4,0.9,50.8,5.5c14.2,4.1,30.6,7,40.4,18
	c18.2,20.2,19.1,51.7,21.1,78.8c1,14.6,6.7,29.7,3.1,43.9c-3.6,14.4-13.2,27.8-24.9,37c-28.6,22.5-69.8,25.2-106.1,25.2
	c-21.2,0-43.3,5.5-63.6-0.7c-36.5-11.1-73.3-28-100.2-55c-6.6-6.6,0.9-19.4,5.9-27.3c10.1-16.2,19.2-36.8,37-43.9"/>
<path class="st19" d="M309.3,66.3c0-10.4,6-23.7,15.9-27c16.2-5.4,34.4,0.9,50.8,5.5c14.2,4.1,30.6,7,40.4,18
	c18.2,20.2,19.1,51.7,21.1,78.8c1,14.6,6.7,29.7,3.1,43.9c-3.6,14.4-13.2,27.8-24.9,37c-28.6,22.5-69.8,25.2-106.1,25.2
	c-21.2,0-43.3,5.5-63.6-0.7c-36.5-11.1-73.3-28-100.2-55c-6.6-6.6,0.9-19.4,5.9-27.3c10.1-16.2,19.2-36.8,37-43.9"/>
<rect y="92.9" class="st2" width="100.2" height="50.9"/>
<text transform="matrix(1 0 0 1 6.75 105.4193)" class="st3 st20 st21">Pin 9 in rs232 dsub9</text>
<text transform="matrix(1 0 0 1 6.75 112.6189)" class="st3 st20 st21">connector doesn’t have </text>
<text transform="matrix(1 0 0 1 6.75 119.8186)" class="st3 st20 st21">5v on it normall</text>
<text transform="matrix(1 0 0 1 51.091 119.8186)" class="st3 st20 st21">y</text>
<text transform="matrix(1 0 0 1 53.984 119.8186)" class="st3 st20 st21">. I connected</text>
<text transform="matrix(1 0 0 1 6.75 127.0188)" class="st3 st20 st21">internally on my instrument.</text>
<text transform="matrix(1 0 0 1 6.75 134.2191)" class="st3 st20 st21">Pin 9 is usually unused.</text>
<rect x="133.6" y="9.7" class="st2" width="23.6" height="56.1"/>
<text transform="matrix(0 1 -1 0 133.6016 37.793)" class="st3 st20 st21">DSUB9 RS232</text>
<rect x="194.4" y="25.6" class="st2" width="23.6" height="45.4"/>
<text transform="matrix(0 1 -1 0 208.1211 41.9317)" class="st3 st20 st21">Sparkfun </text>
<text transform="matrix(0 1 -1 0 198.2188 41.9314)" class="st3 st20 st21">MAX3232</text>
<rect x="288.1" y="9.7" class="st2" width="31.7" height="45.4"/>
<text transform="matrix(0 1 -1 0 307.2461 16.4797)" class="st3 st20 st21">W</text>
<text transform="matrix(0 1 -1 0 307.2461 22.0347)" class="st3 st20 st21">emos d1 </text>
<text transform="matrix(0 1 -1 0 300.0469 16.4797)" class="st3 st20 st21">mini or </text>
<text transform="matrix(0 1 -1 0 292.8457 16.4797)" class="st3 st20 st21">equivalent</text>
</svg>
